<mxfile host="app.diagrams.net" modified="2023-11-21T21:28:43.837Z" agent="Mozilla/5.0 (Windows NT 10.0; Win64; x64) AppleWebKit/537.36 (KHTML, like Gecko) Chrome/119.0.0.0 Safari/537.36" etag="jy72xbTMfkGIpgl3UdMl" version="22.1.3" type="github">
  <diagram name="Page-1" id="KPDfs5Kcc8wOUKfkbuWf">
    <mxGraphModel dx="794" dy="464" grid="1" gridSize="10" guides="1" tooltips="1" connect="1" arrows="1" fold="1" page="1" pageScale="1" pageWidth="850" pageHeight="1100" math="0" shadow="0">
      <root>
        <mxCell id="0" />
        <mxCell id="1" parent="0" />
        <mxCell id="zxfCZuzH31YU9lyxvgSR-1" value="&lt;font style=&quot;font-size: 15px;&quot;&gt;srart&lt;/font&gt;" style="rounded=1;whiteSpace=wrap;html=1;" parent="1" vertex="1">
          <mxGeometry x="330" y="10" width="120" height="60" as="geometry" />
        </mxCell>
        <mxCell id="zuKsGCyAHtJXmE6VIKu5-6" value="&lt;font style=&quot;font-size: 17px;&quot;&gt;&amp;nbsp;stop&lt;/font&gt;" style="rounded=1;whiteSpace=wrap;html=1;" vertex="1" parent="1">
          <mxGeometry x="330" y="470" width="120" height="60" as="geometry" />
        </mxCell>
      </root>
    </mxGraphModel>
  </diagram>
</mxfile>
